<svg xmlns="http://www.w3.org/2000/svg" width="24" height="24" viewBox="0 0 24 24"><path fill="#FFF" d="M12,2.25 C17.3847763,2.25 21.75,6.61522369 21.75,12 C21.75,17.3847763 17.3847763,21.75 12,21.75 C6.61522369,21.75 2.25,17.3847763 2.25,12 C2.25,6.61522369 6.61522369,2.25 12,2.25 Z M12,11.5 C11.4477153,11.5 11,11.9477153 11,12.5 L11,16.5 C11,17.0522847 11.4477153,17.5 12,17.5 C12.5522847,17.5 13,17.0522847 13,16.5 L13,12.5 C13,11.9477153 12.5522847,11.5 12,11.5 Z M12,7.25 C11.1715729,7.25 10.5,7.92157288 10.5,8.75 C10.5,9.57842712 11.1715729,10.25 12,10.25 C12.8284271,10.25 13.5,9.57842712 13.5,8.75 C13.5,7.92157288 12.8284271,7.25 12,7.25 Z"/></svg>