<svg xmlns="http://www.w3.org/2000/svg" width="24" height="24" viewBox="0 0 24 24"><g fill="none" fill-rule="evenodd"><path fill="#FFF" fill-rule="nonzero" d="M13.575 4.65 13.155 1.92C13.05 1.71 12.84 1.5 12.63 1.5L11.37 1.5C11.16 1.5 10.845 1.71 10.845 1.92L10.425 4.65 13.575 4.65ZM10.425 19.35 10.845 22.08C10.845 22.29 11.055 22.5 11.37 22.5L12.63 22.5C12.84 22.5 13.155 22.29 13.155 22.08L13.575 19.35 10.425 19.35ZM19.35 13.575 22.08 13.155C22.29 13.155 22.5 12.945 22.5 12.63L22.5 11.37C22.5 11.16 22.29 10.845 22.08 10.845L19.35 10.425 19.35 13.575ZM4.65 10.425 1.92 10.845C1.71 10.95 1.5 11.16 1.5 11.37L1.5 12.63C1.5 12.84 1.71 13.155 1.92 13.155L4.65 13.575 4.65 10.425ZM9.69 4.86 7.905 2.76C7.8 2.55 7.485 2.445 7.275 2.655L6.225 3.285C6.015 3.39 5.91 3.6 6.015 3.81L6.96 6.435 9.69 4.86ZM14.31 19.14 16.095 21.24C16.305 21.45 16.515 21.45 16.725 21.345L17.775 20.715C17.985 20.61 18.09 20.295 17.985 20.085L17.04 17.46 14.31 19.14ZM19.14 9.69 21.24 7.905C21.45 7.8 21.555 7.485 21.345 7.275L20.715 6.225C20.61 6.015 20.295 5.91 20.085 6.015L17.46 6.96 19.14 9.69ZM4.86 14.31 2.76 16.095C2.55 16.2 2.445 16.515 2.655 16.725L3.285 17.775C3.39 17.985 3.705 18.09 3.915 17.985L6.54 17.04 4.86 14.31ZM6.435 6.96 3.81 6.015C3.6 5.91 3.39 6.015 3.18 6.225L2.55 7.275C2.445 7.485 2.55 7.8 2.76 7.905L4.86 9.69 6.435 6.96ZM17.565 17.04 20.19 17.985C20.4 18.09 20.715 17.985 20.82 17.775L21.45 16.725C21.555 16.515 21.555 16.2 21.345 16.095L19.245 14.31 17.565 17.04ZM17.04 6.435 17.985 3.81C18.09 3.6 17.985 3.285 17.775 3.18L16.725 2.55C16.515 2.445 16.2 2.55 16.095 2.76L14.31 4.86 17.04 6.435ZM6.96 17.565 6.015 20.19C5.91 20.4 6.015 20.715 6.225 20.82L7.275 21.45C7.485 21.555 7.8 21.45 7.905 21.24L9.69 19.14 6.96 17.565ZM12 14C10.8666667 14 10 13.1333333 10 12 10 10.8666667 10.8666667 10 12 10 13.1333333 10 14 10.8666667 14 12 14 13.1333333 13.1333333 14 12 14Z"/><circle cx="12" cy="12" r="7.5" stroke="#FFF" stroke-linecap="square" stroke-width="1.75"/><line x1="12" x2="20" y1="12" y2="12" stroke="#FFF" stroke-width="1.5"/><line x1="12" x2="8" y1="12" y2="5" stroke="#FFF" stroke-width="1.5"/><line x1="12" x2="8" y1="12" y2="19" stroke="#FFF" stroke-width="1.5"/></g></svg>