<?xml version="1.0" encoding="UTF-8" standalone="no"?>
<svg
   width="24"
   height="24"
   viewBox="0 0 24 24"
   version="1.1"
   id="svg22"
   sodipodi:docname="overlays.svg"
   inkscape:version="1.4.2 (ebf0e940, 2025-05-08)"
   xmlns:inkscape="http://www.inkscape.org/namespaces/inkscape"
   xmlns:sodipodi="http://sodipodi.sourceforge.net/DTD/sodipodi-0.dtd"
   xmlns="http://www.w3.org/2000/svg"
   xmlns:svg="http://www.w3.org/2000/svg">
  <defs
     id="defs22" />
  <sodipodi:namedview
     id="namedview22"
     pagecolor="#ffffff"
     bordercolor="#000000"
     borderopacity="0.25"
     inkscape:showpageshadow="2"
     inkscape:pageopacity="0.0"
     inkscape:pagecheckerboard="0"
     inkscape:deskcolor="#d1d1d1"
     inkscape:zoom="3.32"
     inkscape:cx="-12.349398"
     inkscape:cy="-24.246988"
     inkscape:window-width="1296"
     inkscape:window-height="688"
     inkscape:window-x="8"
     inkscape:window-y="33"
     inkscape:window-maximized="0"
     inkscape:current-layer="svg22" />
  <g
     fill="none"
     fill-rule="evenodd"
     id="g22"
     transform="translate(-0.09073112,-359.37714)"
     style="fill:#f9f9f9">
    <g
       fill="#ffffff"
       fill-rule="nonzero"
       stroke="#ffffff"
       stroke-linejoin="round"
       stroke-width="0.75"
       transform="translate(4,363.5)"
       id="g2"
       style="fill:#f9f9f9">
      <polygon
         points="1.093,9.75 8,14.95 14.907,9.75 16,10.6 8,16.65 0,10.6 "
         id="polygon1"
         style="fill:#f9f9f9" />
      <polygon
         points="8,12.1 0,6.05 8,0 16,6.05 "
         id="polygon2"
         style="fill:#f9f9f9" />
    </g>
    <g
       fill="#ffffff"
       transform="translate(4.5,346.5)"
       id="g4"
       style="fill:#f9f9f9">
      <circle
         cx="13.5"
         cy="1.5"
         r="1.5"
         id="circle2"
         style="fill:#f9f9f9" />
      <circle
         cx="7.5"
         cy="1.5"
         r="1.5"
         id="circle3"
         style="fill:#f9f9f9" />
      <circle
         cx="1.5"
         cy="1.5"
         r="1.5"
         id="circle4"
         style="fill:#f9f9f9" />
    </g>
    <g
       stroke="#ffffff"
       stroke-width="1.5"
       transform="translate(3,315)"
       id="g5"
       style="fill:#f9f9f9">
      <rect
         width="18"
         height="18"
         rx="5"
         id="rect4"
         x="0"
         y="0"
         style="fill:#f9f9f9" />
      <line
         x1="9"
         x2="9"
         y1="5"
         y2="13"
         stroke-linecap="round"
         id="line4"
         style="fill:#f9f9f9" />
      <polyline
         stroke-linecap="round"
         points="13 9 9 9 5 9"
         id="polyline4"
         style="fill:#f9f9f9" />
    </g>
    <g
       stroke="#ffffff"
       stroke-linecap="round"
       stroke-linejoin="round"
       stroke-width="1.5"
       transform="translate(4,294)"
       id="g10"
       style="fill:#f9f9f9">
      <path
         fill="#ffffff"
         d="M 11.636364,8 C 11.636364,5.9916918 10.008308,4.3636364 8,4.3636364 5.9916918,4.3636364 4.3636364,5.9916918 4.3636364,8 Z"
         id="path5"
         style="fill:#f9f9f9" />
      <line
         x1="8"
         x2="8"
         y2="1.455"
         id="line5"
         y1="0"
         style="fill:#f9f9f9" />
      <line
         x1="2.342"
         x2="3.375"
         y1="2.342"
         y2="3.375"
         id="line6"
         style="fill:#f9f9f9" />
      <line
         x2="1.455"
         y1="8"
         y2="8"
         id="line7"
         x1="0"
         style="fill:#f9f9f9" />
      <line
         x1="14.545"
         x2="16"
         y1="8"
         y2="8"
         id="line8"
         style="fill:#f9f9f9" />
      <line
         x1="12.625"
         x2="13.658"
         y1="3.375"
         y2="2.342"
         id="line9"
         style="fill:#f9f9f9" />
      <line
         x1="16"
         y1="11"
         y2="11"
         id="line10"
         x2="0"
         style="fill:#f9f9f9" />
    </g>
    <g
       stroke="#ffffff"
       stroke-linecap="round"
       stroke-linejoin="round"
       stroke-width="1.5"
       transform="translate(3.5,268.5)"
       id="g11"
       style="fill:#f9f9f9">
      <path
         d="m 13.224792,15.497904 c 0.252399,0.08525 0.483151,0.127874 0.692254,0.127874 0.209103,0 0.428626,-0.02904 0.658568,-0.08712 l -0.126693,0.548849 c -0.07181,0.351598 -0.16824,0.546239 -0.28929,0.583923 -0.12105,0.03768 -0.26398,0.07851 -0.42879,0.122466 l -0.258505,-0.536614 z"
         id="path10"
         style="fill:#f9f9f9" />
      <polyline
         points="6.903 9.402 5.853 9.596 5.043 9.904 4.472 10.337 3.811 10.554 3.069 10.554 2.43 10.703 1.917 10.988 1.381 11.033 .821 10.828 .616 10.394 .753 9.721 .605 8.786 .183 7.565 0 6.39 0 5.134 .856 4.439 2.373 3.914 3.332 3.286 3.754 2.568 4.393 1.917 5.21 1.303 5.921 1.176 6.601 1.529 6.937 .902 7.279 .548 7.827 .274 8.557 .206 9.481 .354 9.755 .548 9.424 1.244 9.755 1.837 10.736 2.488 11.523 2.077 12.117 .605 12.573 0 12.799 .902 13.383 1.529 13.634 2.031 13.862 2.956 14.205 3.526 14.661 3.766 15.38 4.564 16.372 5.922 16.932 6.764 17 7.656 16.932 8.455 16.703 9.345 16.338 10.235 15.825 11.125 15.551 11.786 15.551 12.297 15.003 12.574 14.022 12.859 13.121 12.984 12.299 12.95 11.558 12.528 10.896 11.707 10.519 11.011 10.44 10.429 10.143 10.383 9.641 10.851 9.162 10.714 8.717 9.984 8.226 9.539 7.701 9.379 6.903 9.402"
         id="polyline10"
         style="fill:#f9f9f9" />
    </g>
    <path
       fill="#ffffff"
       d="M 13.5,0 C 17.642136,0 21,3.3578644 21,7.5 21,11.642136 17.642136,15 13.5,15 h -6 C 3.3578644,15 0,11.642136 0,7.5 0,3.3578644 3.3578644,0 7.5,0 Z m 0.0605,3.558 c -2.134,0 -2.827,1.782 -2.827,4.026 0,2.244 0.693,4.048 2.827,4.048 2.134,0 2.838,-1.804 2.838,-4.048 0,-2.244 -0.704,-4.026 -2.838,-4.026 z M 8.0485,3.69 h -1.243 l -1.958,1.881 0.836,0.88 0.627,-0.594 c 0.253,-0.253 0.341,-0.44 0.341,-0.44 h 0.022 c 0,0 -0.00842,0.202125 -0.010527,0.4295156 L 6.6625,10.279 H 4.9685 V 11.5 h 4.774 v -1.221 h -1.694 z m 5.512,1.177 c 1.067,0 1.375,1.199 1.375,2.717 0,1.54 -0.308,2.75 -1.375,2.75 -1.067,0 -1.375,-1.21 -1.375,-2.75 0,-1.518 0.308,-2.717 1.375,-2.717 z"
       transform="translate(1.5,244.5)"
       id="path11"
       style="fill:#f9f9f9" />
    <g
       stroke="#ffffff"
       stroke-width="1.5"
       transform="translate(4.75,219)"
       id="g13"
       style="fill:#f9f9f9">
      <path
         fill="#ffffff"
         fill-rule="nonzero"
         d="M 13.25,2.25 H 0.75 C 0.33578644,2.25 0,2.5857864 0,3 v 5 c 0,0.4142136 0.33578644,0.75 0.75,0.75 h 12.5 L 15.970118,5.5 Z"
         id="path12"
         style="fill:#f9f9f9" />
      <line
         x1="7.25"
         x2="7.25"
         y1="16.5"
         stroke-linecap="round"
         id="line12"
         y2="0"
         style="fill:#f9f9f9" />
      <line
         x1="5.25"
         x2="9.25"
         y1="17"
         y2="17"
         stroke-linecap="round"
         id="line13"
         style="fill:#f9f9f9" />
    </g>
    <path
       fill="#ffffff"
       d="m 18.5,195.5 c -0.916667,0.25 -1.583333,0.58333 -2,1 -0.416667,0.41667 -0.75,0.91667 -1,1.5 2,0.66667 3.5,1.83333 4.5,3.5 1.5,2.5 2.141993,5.75363 0.5,9 -0.25,-0.91667 -0.583333,-1.58333 -1,-2 -0.416667,-0.41667 -0.916667,-0.75 -1.5,-1 -0.666667,2 -1.833333,3.5 -3.5,4.5 -2.5,1.5 -5.7539049,2.14145 -9,0.5 0.9166667,-0.25 1.5833333,-0.58333 2,-1 0.4166667,-0.41667 0.75,-0.91667 1,-1.5 -2,-0.66667 -3.5,-1.83333 -4.5,-3.5 -1.5,-2.5 -2.1419929,-5.75363 -0.5,-9 0.25,0.91667 0.5833333,1.58333 1,2 0.4166667,0.41667 0.9166667,0.75 1.5,1 0.6666667,-2 1.8333333,-3.5 3.5,-4.5 2.5,-1.5 5.71616,-2.16054 9,-0.5 z m -6.5,6.25 c -1.242641,0 -2.25,1.00736 -2.25,2.25 0,1.24264 1.007359,2.25 2.25,2.25 1.242641,0 2.25,-1.00736 2.25,-2.25 0,-1.24264 -1.007359,-2.25 -2.25,-2.25 z"
       id="path13"
       style="fill:#f9f9f9" />
    <g
       transform="translate(3,171)"
       id="g14"
       style="fill:#f9f9f9">
      <circle
         cx="9"
         cy="9"
         r="9"
         stroke="#ffffff"
         stroke-linecap="round"
         stroke-width="1.5"
         id="circle13"
         style="fill:#f9f9f9" />
      <path
         fill="#ffffff"
         fill-rule="nonzero"
         d="M 7.0376851,13.890529 C 6.1026349,13.417902 5,11.968936 5,10.556822 5,8.3138071 6.8305974,7.8820426 7.7385767,6.3738249 8.6465559,4.8656071 8.3402763,3.25 8.3402763,3.25 c 0,0 1.1789906,0.9721166 1.9489417,2.8580668 0.230612,0.71746 0.299796,1.0487136 0.299796,1.8046054 0,1.7503969 -1.1140879,2.8605808 -1.1140879,2.8605808 0,0 1.8206589,0.199469 2.5744419,-2.8605808 0.645713,0.6119511 0.876485,1.4972408 0.761099,2.7065038 -0.172102,1.209262 -0.972932,2.591963 -2.118848,3.218379 -0.475894,0.260147 -1.0349323,0.394627 -1.7715186,0.412256 -0.7827959,0.0042 -1.2084398,-0.0558 -1.8824153,-0.359282 z"
         transform="matrix(-1,0,0,1,17.839,0)"
         id="path14"
         style="fill:#f9f9f9" />
    </g>
    <path
       fill="#ffffff"
       fill-rule="nonzero"
       stroke="#ffffff"
       d="m 9.8736942,164.92121 c -0.801245,-0.80967 -1.7865937,-1.81185 -1.7865937,-3.14133 0,-2.11177 1.3606241,-2.48646 2.2919325,-3.82983 C 11.310342,156.60669 10.790612,154 10.790612,154 c 0,0 2.466052,1.1654 3.044625,2.71394 0.441775,0.99869 0.479333,1.49761 0.479333,2.09912 0,0.40101 -0.04498,0.78983 -0.134936,1.16648 0.169119,-0.10927 0.404225,-0.6986 0.705317,-1.76799 0.608543,0.57614 0.84192,2.71733 0.663571,3.56833 -0.339616,1.62048 -1.106561,2.14988 -2.249952,3.22012 2.524018,-0.14404 4.122779,-1.61372 4.545101,-2.17357 0.422323,-0.55984 1.190991,-1.12492 1.523987,-4.10137 C 19.696643,155.78447 17.843671,151 17.843671,151 c 0,0 0,1.24057 -0.422322,3 -0.328167,1.36717 -0.847217,1.6671 -0.847217,1.6671 0,0 -2.189035,-1.60749 -2.738895,-4.4093 C 13.285377,148.45599 13.29857,147 13.29857,147 c 0,0 -2.760933,1.33744 -4.6734987,4.69496 -1.6952287,2.98004 -1.1236145,4.73889 -1.1236145,4.73889 0,0 -0.9349817,-1.00118 -1.3044546,-1.85546 -0.3694729,-0.85428 -0.6255975,-1.82273 -0.6255975,-1.82273 0,0 -1.9811396,4.10794 -0.7459892,8.28828 0.8100779,2.30906 2.4057616,3.54241 5.0482787,3.87727 z"
       transform="matrix(-1,0,0,1,23.827,0)"
       id="path15"
       style="fill:#f9f9f9" />
    <path
       stroke="#ffffff"
       stroke-linecap="round"
       stroke-linejoin="round"
       stroke-width="1.5"
       d="m 11.048417,13.921077 c 0.481123,1.086252 1.917558,1.400577 2.82246,0.721036 0.939477,-0.664871 0.944114,-1.792945 0.821051,-2.338285 C 14.568865,11.758489 14.060454,11.031021 13.00936,11 8.2065081,11 6.2450549,11 5.125,11 M 2.75,11 C 2.5581746,11 2.641508,11 2.5,11 M 0.25,11 C 0.13888889,11 0.22222222,11 0,11 M 14.003535,4.3525625 C 14.591812,3.2385809 15.797418,3.0542456 16.625,3.5 17.452582,3.9457544 17.92547,4.9008512 17.674706,5.9112835 17.452582,6.7481689 16.911941,7.4981911 15.900922,7.5 10.300539,7.5 7.3752315,7.5 6.125,7.5 m -2.375,0 c -0.1900106,0 -0.1066773,0 -0.25,0 m -2.25,0 C 1.1388889,7.5 1.222222,7.5 1,7.5 M 7.8294277,1.0785587 C 8.2348192,0.17908334 9.4350987,-0.38979633 10.636864,0.31926551 11.532999,0.92015048 11.668981,1.9239583 11.453417,2.6857406 11.306516,3.2633891 10.790497,3.9801235 9.8261197,4 7.8663755,4 7.6326689,4 7.125,4 M 4.75,4 C 4.5458791,4 4.6292127,4 4.5,4 M 2.25,4 C 2.1388889,4 2.2222222,4 2,4"
       transform="translate(2.875,125)"
       id="path16"
       style="fill:#f9f9f9" />
    <path
       fill="#ffffff"
       d="m 5.4912783,16.151755 c 1.021804,0 1.9499628,-0.239968 2.7844766,-0.719905 C 9.1102687,14.951913 9.772938,14.305588 10.263763,13.492874 10.754588,12.680159 11,11.775845 11,10.779932 11,9.9474944 10.831917,9.1299106 10.49575,8.327181 10.15956,7.5244738 9.8065859,6.7785049 9.4368268,6.0892743 L 6.5038305,0.63194531 C 6.2801804,0.21064844 5.942663,0 5.4912783,0 5.0439782,0 4.7085031,0.20897441 4.4848531,0.62692323 L 1.5518568,6.0892743 C 1.1854457,6.7785049 0.83519455,7.5244738 0.50110334,8.327181 0.16703445,9.1299106 0,9.9474944 0,10.779932 c 0,0.995913 0.24540124,1.900227 0.73620373,2.712942 0.49080247,0.812714 1.15158567,1.459039 1.98234967,1.938976 0.830764,0.479937 1.7550056,0.719905 2.7727249,0.719905 z"
       transform="translate(6.5,100)"
       id="path17"
       style="fill:#f9f9f9" />
    <g
       stroke="#ffffff"
       stroke-linecap="square"
       stroke-width="1.5"
       transform="translate(3,75)"
       id="g19"
       style="fill:#f9f9f9">
      <circle
         cx="9"
         cy="9"
         r="2.5"
         id="circle17"
         style="fill:#f9f9f9" />
      <circle
         cx="9"
         cy="9"
         r="5.75"
         id="circle18"
         style="fill:#f9f9f9" />
      <circle
         cx="9"
         cy="9"
         r="9"
         id="circle19"
         style="fill:#f9f9f9" />
    </g>
    <path
       fill="#ffffff"
       fill-rule="nonzero"
       d="M 4.1691546,13 H 14.683393 c 0.95383,0 1.808042,-0.217358 2.562636,-0.652075 0.754593,-0.434717 1.349405,-1.017825 1.784434,-1.749325 0.435029,-0.7314992 0.652543,-1.5429107 0.652543,-2.4342344 0,-0.9217427 -0.226867,-1.7443104 -0.680602,-2.467703 C 18.548654,4.9732699 17.931024,4.4019946 17.149513,3.9828368 16.367988,3.5636789 15.488511,3.3541 14.511081,3.3541 14.164865,2.6872082 13.721161,2.1026082 13.179969,1.6002999 12.638792,1.0979916 12.013607,0.70570154 11.304415,0.42342966 10.595238,0.14114322 9.817862,0 8.9722883,0 7.8803966,0 6.8815412,0.24873809 5.9757221,0.74621426 5.0699029,1.2436904 4.3269986,1.9123651 3.747009,2.7522382 3.1670341,3.5921113 2.8231324,4.53212 2.7153038,5.5722644 1.9393949,5.8079179 1.2928656,6.2466154 0.7757158,6.8883567 0.25857193,7.5300981 0,8.3047302 0,9.2122531 0,9.9168121 0.16579733,10.555031 0.497392,11.12691 0.82899256,11.69879 1.306486,12.153941 1.9298724,12.492365 2.5532587,12.830788 3.2996862,13 4.1691546,13 Z"
       transform="translate(2.14,53)"
       id="path19"
       style="fill:#f9f9f9" />
    <g
       stroke="#ffffff"
       stroke-width="1.5"
       transform="translate(3,27)"
       id="g21"
       style="fill:#f9f9f9">
      <path
         stroke-linecap="round"
         d="M 15.562117,2.840525 C 17.073954,4.4505577 18,6.6171341 18,9 18,13.970563 13.970563,18 9,18 4.0294372,18 0,13.970563 0,9 0,4.0294372 4.0294372,0 9,0 H 8.999"
         id="path20"
         style="fill:#f9f9f9" />
      <path
         stroke-linecap="round"
         d="M 12.64562,5.5780695 C 13.48553,6.4725321 14,7.6761856 14,9 14,11.761424 11.761424,14 9,14 6.2385763,14 4,11.761424 4,9 4,6.2385763 6.2385763,4 9,4 h -5.556e-4"
         id="path21"
         style="fill:#f9f9f9" />
      <circle
         cx="9"
         cy="9"
         r="1.25"
         fill="#ffffff"
         stroke-linecap="square"
         id="circle21"
         style="fill:#f9f9f9" />
      <line
         x1="9"
         x2="9"
         y1="9"
         stroke-linecap="round"
         id="line21"
         y2="0"
         style="fill:#f9f9f9" />
    </g>
  </g>
</svg>
