<?xml version="1.0" encoding="UTF-8" standalone="no"?>
<svg
   width="24"
   height="24"
   viewBox="0 0 24 24"
   version="1.1"
   id="svg1"
   sodipodi:docname="back.svg"
   inkscape:version="1.4.2 (ebf0e940, 2025-05-08)"
   xmlns:inkscape="http://www.inkscape.org/namespaces/inkscape"
   xmlns:sodipodi="http://sodipodi.sourceforge.net/DTD/sodipodi-0.dtd"
   xmlns="http://www.w3.org/2000/svg"
   xmlns:svg="http://www.w3.org/2000/svg">
  <defs
     id="defs1" />
  <sodipodi:namedview
     id="namedview1"
     pagecolor="#ffffff"
     bordercolor="#000000"
     borderopacity="0.25"
     inkscape:showpageshadow="2"
     inkscape:pageopacity="0.0"
     inkscape:pagecheckerboard="0"
     inkscape:deskcolor="#d1d1d1"
     showgrid="false"
     inkscape:zoom="11.74"
     inkscape:cx="8.4327087"
     inkscape:cy="10.562181"
     inkscape:window-width="1040"
     inkscape:window-height="615"
     inkscape:window-x="1639"
     inkscape:window-y="26"
     inkscape:window-maximized="0"
     inkscape:current-layer="svg1" />
  <path
     stroke="#ffffff"
     stroke-linecap="round"
     stroke-linejoin="round"
     stroke-width="1.74739"
     d="m 14.573606,19.108223 c 0.571436,1.241131 2.277508,1.600273 3.352271,0.823842 1.115829,-0.759669 1.121336,-2.048585 0.975173,-2.67168 -0.146163,-0.623094 -0.75001,-1.454285 -1.998407,-1.489729 -5.704409,0 -8.0340515,0 -9.364355,0 m -2.8208177,0 c -0.2278335,0 -0.1288573,0 -0.2969282,0 m -2.6723536,0 c -0.1319681,0 -0.032992,0 -0.2969282,0 M 18.083437,8.1754192 c 0.698704,-1.2728143 2.130618,-1.4834323 3.113547,-0.9741217 0.98293,0.5093105 1.544585,1.600586 1.246749,2.7550869 -0.263819,0.9562096 -0.905945,1.8131706 -2.106745,1.8152376 -6.651647,0 -10.126071,0 -11.6109872,0 m -2.8208178,0 c -0.225678,0 -0.126702,0 -0.2969282,0 m -2.6723536,0 c -0.1319681,0 -0.032992,0 -0.2969282,0 m 8.111398,-7.3370176 c 0.481488,-1.0277235 1.907076,-1.6777146 3.334428,-0.867554 1.064351,0.6865597 1.225858,1.8334916 0.96983,2.7038897 -0.174476,0.6600102 -0.787358,1.4789374 -1.932761,1.5016479 -2.327613,0 -2.60519,0 -3.2081547,0 m -2.8208175,0 c -0.242437,0 -0.1434607,0 -0.2969282,0 m -2.6723537,0 c -0.131968,0 -0.032992,0 -0.2969282,0"
     id="path16"
     style="fill:#f9f9f9" />
</svg>
